<svg width="20" height="14" viewBox="0 0 20 14" fill="none" xmlns="http://www.w3.org/2000/svg">
<path d="M19.7118 4.29106L15.711 0.293884C15.6178 0.200711 15.5071 0.126803 15.3852 0.0763783C15.2634 0.0259536 15.1328 0 15.0009 0C14.7346 0 14.4791 0.105713 14.2908 0.293884C14.1024 0.482055 13.9966 0.737269 13.9966 1.00338C13.9966 1.2695 14.1024 1.52471 14.2908 1.71288L16.5912 4.00127H4.99909C4.73383 4.00127 4.47943 4.10655 4.29186 4.29395C4.10429 4.48136 3.99891 4.73553 3.99891 5.00056C3.99891 5.26559 4.10429 5.51976 4.29186 5.70717C4.47943 5.89457 4.73383 5.99985 4.99909 5.99985H19.0016C19.1991 5.99887 19.3918 5.93951 19.5556 5.82925C19.7193 5.719 19.8468 5.56278 19.9218 5.38029C19.9984 5.19831 20.0193 4.99774 19.9819 4.80388C19.9446 4.61003 19.8505 4.43158 19.7118 4.29106ZM15.0009 7.99844H0.998367C0.800906 7.99943 0.608155 8.05879 0.444405 8.16904C0.280655 8.2793 0.153234 8.43551 0.0782005 8.618C0.00160719 8.79999 -0.0193193 9.00056 0.0180616 9.19441C0.0554425 9.38826 0.149456 9.56671 0.288239 9.70724L4.28896 13.7044C4.38194 13.7981 4.49257 13.8724 4.61445 13.9231C4.73633 13.9739 4.86706 14 4.99909 14C5.13113 14 5.26186 13.9739 5.38374 13.9231C5.50562 13.8724 5.61624 13.7981 5.70922 13.7044C5.80297 13.6115 5.87738 13.501 5.92815 13.3792C5.97893 13.2574 6.00507 13.1268 6.00507 12.9949C6.00507 12.863 5.97893 12.7324 5.92815 12.6106C5.87738 12.4888 5.80297 12.3783 5.70922 12.2854L3.4088 9.99703H15.0009C15.2662 9.99703 15.5206 9.89175 15.7081 9.70434C15.8957 9.51694 16.0011 9.26276 16.0011 8.99774C16.0011 8.73271 15.8957 8.47853 15.7081 8.29113C15.5206 8.10373 15.2662 7.99844 15.0009 7.99844Z" fill="white"/>
</svg>
