<svg width="22" height="22" viewBox="0 0 22 22" fill="none" xmlns="http://www.w3.org/2000/svg">
<path d="M22 19.25L17.875 22V20.625H11.3438L14.0938 17.875H17.875V16.5L22 19.25Z" fill="white"/>
<path d="M0 2.75L4.125 0V1.375H10.6563L7.90625 4.125H4.125V5.5L0 2.75Z" fill="white"/>
<path fill-rule="evenodd" clip-rule="evenodd" d="M0 13.3925L13.3925 0L22 8.6075L8.6075 22L0 13.3925ZM13.3925 1.91128L1.91125 13.3925L8.6075 20.0888L20.0888 8.60753L13.3925 1.91128Z" fill="white"/>
<path d="M5.73374 13.3924L4.77124 14.3549L7.64499 17.2286L8.60749 16.2661L9.62499 17.2149L13.3925 13.3924C12.0656 14.6806 9.95027 14.665 8.64257 13.3573C7.33486 12.0496 7.31924 9.93427 8.60749 8.60739L4.78499 12.3749L5.73374 13.3924Z" fill="white"/>
<path d="M17.215 7.65857L14.3412 4.78482L13.3787 5.74732L12.375 4.78482L8.60748 8.60732C9.93436 7.31907 12.0497 7.33469 13.3574 8.6424C14.6651 9.9501 14.6807 12.0654 13.3925 13.3923L17.215 9.62482L16.2525 8.66232L17.215 7.65857Z" fill="white"/>
</svg>
