<svg width="22" height="20" viewBox="0 0 22 20" fill="none" xmlns="http://www.w3.org/2000/svg">
<path d="M9.46 3.99999L10 3.40999V6.99999C10 7.2652 10.1054 7.51956 10.2929 7.70709C10.4804 7.89463 10.7348 7.99999 11 7.99999C11.2652 7.99999 11.5196 7.89463 11.7071 7.70709C11.8946 7.51956 12 7.2652 12 6.99999V3.40999L12.54 3.95999C12.6308 4.06251 12.7416 4.1453 12.8657 4.20322C12.9898 4.26114 13.1244 4.29296 13.2613 4.29671C13.3982 4.30047 13.5344 4.27606 13.6615 4.22502C13.7885 4.17398 13.9038 4.09739 14 3.99999C14.0937 3.90702 14.1681 3.79642 14.2189 3.67456C14.2697 3.55271 14.2958 3.422 14.2958 3.28999C14.2958 3.15798 14.2697 3.02727 14.2189 2.90541C14.1681 2.78355 14.0937 2.67295 14 2.57999L11.71 0.289988C11.6149 0.198947 11.5028 0.127582 11.38 0.0799879C11.1365 -0.0200301 10.8635 -0.0200301 10.62 0.0799879C10.4972 0.127582 10.3851 0.198947 10.29 0.289988L8 2.53999C7.80639 2.7336 7.69762 2.99618 7.69762 3.26999C7.69762 3.54379 7.80639 3.80638 8 3.99999C8.19361 4.1936 8.4562 4.30236 8.73 4.30236C9.0038 4.30236 9.26639 4.1936 9.46 3.99999ZM11 9.99999C10.4067 9.99999 9.82664 10.1759 9.33329 10.5056C8.83994 10.8352 8.45542 11.3038 8.22836 11.8519C8.0013 12.4001 7.94189 13.0033 8.05764 13.5853C8.1734 14.1672 8.45912 14.7018 8.87868 15.1213C9.29824 15.5409 9.83279 15.8266 10.4147 15.9423C10.9967 16.0581 11.5999 15.9987 12.1481 15.7716C12.6962 15.5446 13.1648 15.16 13.4944 14.6667C13.8241 14.1734 14 13.5933 14 13C14 12.2043 13.6839 11.4413 13.1213 10.8787C12.5587 10.3161 11.7956 9.99999 11 9.99999ZM11 14C10.8022 14 10.6089 13.9413 10.4444 13.8315C10.28 13.7216 10.1518 13.5654 10.0761 13.3827C10.0004 13.1999 9.98063 12.9989 10.0192 12.8049C10.0578 12.6109 10.153 12.4327 10.2929 12.2929C10.4327 12.153 10.6109 12.0578 10.8049 12.0192C10.9989 11.9806 11.2 12.0004 11.3827 12.0761C11.5654 12.1518 11.7216 12.28 11.8315 12.4444C11.9414 12.6089 12 12.8022 12 13C12 13.2652 11.8946 13.5196 11.7071 13.7071C11.5196 13.8946 11.2652 14 11 14ZM4 13C4 13.1978 4.05865 13.3911 4.16853 13.5556C4.27841 13.72 4.43459 13.8482 4.61732 13.9239C4.80004 13.9996 5.00111 14.0194 5.19509 13.9808C5.38907 13.9422 5.56725 13.8469 5.70711 13.7071C5.84696 13.5672 5.9422 13.3891 5.98079 13.1951C6.01937 13.0011 5.99957 12.8 5.92388 12.6173C5.84819 12.4346 5.72002 12.2784 5.55557 12.1685C5.39112 12.0586 5.19778 12 5 12C4.73478 12 4.48043 12.1053 4.29289 12.2929C4.10536 12.4804 4 12.7348 4 13ZM18 13C18 12.8022 17.9414 12.6089 17.8315 12.4444C17.7216 12.28 17.5654 12.1518 17.3827 12.0761C17.2 12.0004 16.9989 11.9806 16.8049 12.0192C16.6109 12.0578 16.4327 12.153 16.2929 12.2929C16.153 12.4327 16.0578 12.6109 16.0192 12.8049C15.9806 12.9989 16.0004 13.1999 16.0761 13.3827C16.1518 13.5654 16.28 13.7216 16.4444 13.8315C16.6089 13.9413 16.8022 14 17 14C17.2652 14 17.5196 13.8946 17.7071 13.7071C17.8946 13.5196 18 13.2652 18 13ZM19 5.99999H15C14.7348 5.99999 14.4804 6.10535 14.2929 6.29288C14.1054 6.48042 14 6.73477 14 6.99999C14 7.2652 14.1054 7.51956 14.2929 7.70709C14.4804 7.89463 14.7348 7.99999 15 7.99999H19C19.2652 7.99999 19.5196 8.10534 19.7071 8.29288C19.8946 8.48042 20 8.73477 20 8.99999V17C20 17.2652 19.8946 17.5196 19.7071 17.7071C19.5196 17.8946 19.2652 18 19 18H3C2.73478 18 2.48043 17.8946 2.29289 17.7071C2.10536 17.5196 2 17.2652 2 17V8.99999C2 8.73477 2.10536 8.48042 2.29289 8.29288C2.48043 8.10534 2.73478 7.99999 3 7.99999H7C7.26522 7.99999 7.51957 7.89463 7.70711 7.70709C7.89464 7.51956 8 7.2652 8 6.99999C8 6.73477 7.89464 6.48042 7.70711 6.29288C7.51957 6.10535 7.26522 5.99999 7 5.99999H3C2.20435 5.99999 1.44129 6.31606 0.87868 6.87867C0.31607 7.44128 0 8.20434 0 8.99999V17C0 17.7956 0.31607 18.5587 0.87868 19.1213C1.44129 19.6839 2.20435 20 3 20H19C19.7956 20 20.5587 19.6839 21.1213 19.1213C21.6839 18.5587 22 17.7956 22 17V8.99999C22 8.20434 21.6839 7.44128 21.1213 6.87867C20.5587 6.31606 19.7956 5.99999 19 5.99999Z" fill="white"/>
</svg>
