<svg width="30" height="30" viewBox="0 0 30 30" fill="none" xmlns="http://www.w3.org/2000/svg">
<circle cx="15" cy="15" r="15" fill="#FAFAFA"/>
<path d="M21 19.375L18.5625 21V20.1875H14.7031L16.3281 18.5625H18.5625V17.75L21 19.375Z" fill="#29BB89"/>
<path d="M8 9.625L10.4375 8V8.8125H14.2969L12.6719 10.4375H10.4375V11.25L8 9.625Z" fill="#29BB89"/>
<path fill-rule="evenodd" clip-rule="evenodd" d="M8 15.9138L15.9138 8L21 13.0862L13.0862 21L8 15.9138ZM15.9138 9.12931L9.12938 15.9137L13.0863 19.8706L19.8706 13.0862L15.9138 9.12931Z" fill="#29BB89"/>
<path d="M11.3881 15.9137L10.8194 16.4825L12.5175 18.1806L13.0862 17.6118L13.6875 18.1725L15.9137 15.9137C15.1297 16.6749 13.8797 16.6657 13.107 15.893C12.3342 15.1202 12.325 13.8703 13.0862 13.0862L10.8275 15.3125L11.3881 15.9137Z" fill="#29BB89"/>
<path d="M18.1725 12.5254L16.4744 10.8273L15.9056 11.3961L15.3125 10.8273L13.0862 13.0861C13.8703 12.3248 15.1203 12.334 15.893 13.1068C16.6658 13.8795 16.675 15.1295 15.9137 15.9136L18.1725 13.6873L17.6037 13.1186L18.1725 12.5254Z" fill="#29BB89"/>
</svg>
