<svg width="30" height="30" viewBox="0 0 30 30" fill="none" xmlns="http://www.w3.org/2000/svg">
<circle cx="15" cy="15" r="15" fill="#FAFAFA"/>
<path d="M14.16 10.3976L14.4545 10.0435V12.1981C14.4545 12.3572 14.512 12.5099 14.6143 12.6224C14.7166 12.735 14.8553 12.7982 15 12.7982C15.1447 12.7982 15.2834 12.735 15.3857 12.6224C15.488 12.5099 15.5455 12.3572 15.5455 12.1981V10.0435L15.84 10.3736C15.8895 10.4351 15.95 10.4848 16.0177 10.5196C16.0853 10.5543 16.1588 10.5734 16.2334 10.5757C16.3081 10.5779 16.3824 10.5633 16.4517 10.5327C16.521 10.502 16.5839 10.4561 16.6364 10.3976C16.6875 10.3418 16.7281 10.2754 16.7558 10.2023C16.7835 10.1292 16.7977 10.0507 16.7977 9.9715C16.7977 9.89227 16.7835 9.81383 16.7558 9.7407C16.7281 9.66756 16.6875 9.60119 16.6364 9.54539L15.3873 8.17105C15.3354 8.11641 15.2742 8.07358 15.2073 8.04502C15.0745 7.98499 14.9255 7.98499 14.7927 8.04502C14.7258 8.07358 14.6646 8.11641 14.6127 8.17105L13.3636 9.52139C13.258 9.63758 13.1987 9.79517 13.1987 9.9595C13.1987 10.1238 13.258 10.2814 13.3636 10.3976C13.4692 10.5138 13.6125 10.5791 13.7618 10.5791C13.9112 10.5791 14.0544 10.5138 14.16 10.3976ZM15 13.9985C14.6764 13.9985 14.36 14.1041 14.0909 14.3019C13.8218 14.4998 13.612 14.781 13.4882 15.11C13.3643 15.4389 13.3319 15.8009 13.3951 16.1502C13.4582 16.4995 13.6141 16.8203 13.8429 17.0721C14.0718 17.3239 14.3633 17.4953 14.6808 17.5648C14.9982 17.6343 15.3272 17.5986 15.6262 17.4624C15.9252 17.3261 16.1808 17.0953 16.3606 16.7992C16.5404 16.5031 16.6364 16.155 16.6364 15.799C16.6364 15.3214 16.464 14.8635 16.1571 14.5258C15.8502 14.1882 15.434 13.9985 15 13.9985ZM15 16.3991C14.8921 16.3991 14.7867 16.3639 14.697 16.298C14.6073 16.232 14.5374 16.1383 14.4961 16.0286C14.4548 15.919 14.444 15.7983 14.465 15.6819C14.4861 15.5655 14.538 15.4585 14.6143 15.3746C14.6906 15.2907 14.7878 15.2335 14.8936 15.2103C14.9994 15.1872 15.1091 15.1991 15.2087 15.2445C15.3084 15.2899 15.3936 15.3668 15.4535 15.4655C15.5135 15.5642 15.5455 15.6803 15.5455 15.799C15.5455 15.9581 15.488 16.1108 15.3857 16.2233C15.2834 16.3359 15.1447 16.3991 15 16.3991ZM11.1818 15.799C11.1818 15.9177 11.2138 16.0337 11.2737 16.1324C11.3337 16.2311 11.4189 16.308 11.5185 16.3534C11.6182 16.3988 11.7279 16.4107 11.8337 16.3876C11.9395 16.3644 12.0367 16.3073 12.113 16.2233C12.1893 16.1394 12.2412 16.0325 12.2622 15.916C12.2833 15.7996 12.2725 15.6789 12.2312 15.5693C12.1899 15.4596 12.12 15.3659 12.0303 15.2999C11.9406 15.234 11.8352 15.1988 11.7273 15.1988C11.5826 15.1988 11.4439 15.262 11.3416 15.3746C11.2393 15.4871 11.1818 15.6398 11.1818 15.799ZM18.8182 15.799C18.8182 15.6803 18.7862 15.5642 18.7263 15.4655C18.6663 15.3668 18.5811 15.2899 18.4815 15.2445C18.3818 15.1991 18.2721 15.1872 18.1663 15.2103C18.0605 15.2335 17.9633 15.2907 17.887 15.3746C17.8107 15.4585 17.7588 15.5655 17.7378 15.6819C17.7167 15.7983 17.7275 15.919 17.7688 16.0286C17.8101 16.1383 17.88 16.232 17.9697 16.298C18.0594 16.3639 18.1648 16.3991 18.2727 16.3991C18.4174 16.3991 18.5561 16.3359 18.6584 16.2233C18.7607 16.1108 18.8182 15.9581 18.8182 15.799ZM19.3636 11.5979H17.1818C17.0372 11.5979 16.8984 11.6611 16.7961 11.7737C16.6938 11.8862 16.6364 12.0389 16.6364 12.1981C16.6364 12.3572 16.6938 12.5099 16.7961 12.6224C16.8984 12.735 17.0372 12.7982 17.1818 12.7982H19.3636C19.5083 12.7982 19.647 12.8614 19.7493 12.974C19.8516 13.0865 19.9091 13.2392 19.9091 13.3984V18.1996C19.9091 18.3587 19.8516 18.5114 19.7493 18.6239C19.647 18.7365 19.5083 18.7997 19.3636 18.7997H10.6364C10.4917 18.7997 10.353 18.7365 10.2507 18.6239C10.1484 18.5114 10.0909 18.3587 10.0909 18.1996V13.3984C10.0909 13.2392 10.1484 13.0865 10.2507 12.974C10.353 12.8614 10.4917 12.7982 10.6364 12.7982H12.8182C12.9628 12.7982 13.1016 12.735 13.2039 12.6224C13.3062 12.5099 13.3636 12.3572 13.3636 12.1981C13.3636 12.0389 13.3062 11.8862 13.2039 11.7737C13.1016 11.6611 12.9628 11.5979 12.8182 11.5979H10.6364C10.2024 11.5979 9.78616 11.7876 9.47928 12.1252C9.1724 12.4629 9 12.9208 9 13.3984V18.1996C9 18.6771 9.1724 19.135 9.47928 19.4727C9.78616 19.8103 10.2024 20 10.6364 20H19.3636C19.7976 20 20.2138 19.8103 20.5207 19.4727C20.8276 19.135 21 18.6771 21 18.1996V13.3984C21 12.9208 20.8276 12.4629 20.5207 12.1252C20.2138 11.7876 19.7976 11.5979 19.3636 11.5979Z" fill="#29BB89"/>
</svg>
