<svg width="30" height="30" viewBox="0 0 30 30" fill="none" xmlns="http://www.w3.org/2000/svg">
<circle cx="15" cy="15" r="15" fill="#FAFAFA"/>
<path d="M20.8271 13.452L18.4266 11.1679C18.3707 11.1147 18.3042 11.0725 18.2311 11.0436C18.158 11.0148 18.0797 11 18.0005 11C17.8407 11 17.6875 11.0604 17.5745 11.1679C17.4615 11.2755 17.398 11.4213 17.398 11.5734C17.398 11.7254 17.4615 11.8713 17.5745 11.9788L18.9547 13.2864H11.9995C11.8403 13.2864 11.6877 13.3466 11.5751 13.4537C11.4626 13.5608 11.3993 13.706 11.3993 13.8575C11.3993 14.0089 11.4626 14.1542 11.5751 14.2612C11.6877 14.3683 11.8403 14.4285 11.9995 14.4285H20.401C20.5195 14.4279 20.6351 14.394 20.7334 14.331C20.8316 14.268 20.9081 14.1787 20.9531 14.0745C20.999 13.9705 21.0116 13.8558 20.9892 13.7451C20.9667 13.6343 20.9103 13.5323 20.8271 13.452ZM18.0005 15.5705H9.59902C9.48054 15.5711 9.36489 15.605 9.26664 15.668C9.16839 15.731 9.09194 15.8203 9.04692 15.9246C9.00096 16.0286 8.98841 16.1432 9.01084 16.2539C9.03327 16.3647 9.08967 16.4667 9.17294 16.547L11.5734 18.8311C11.6292 18.8846 11.6955 18.9271 11.7687 18.9561C11.8418 18.9851 11.9202 19 11.9995 19C12.0787 19 12.1571 18.9851 12.2302 18.9561C12.3034 18.9271 12.3697 18.8846 12.4255 18.8311C12.4818 18.778 12.5264 18.7149 12.5569 18.6453C12.5874 18.5757 12.603 18.501 12.603 18.4257C12.603 18.3503 12.5874 18.2756 12.5569 18.2061C12.5264 18.1365 12.4818 18.0733 12.4255 18.0202L11.0453 16.7126H18.0005C18.1597 16.7126 18.3123 16.6524 18.4249 16.5453C18.5374 16.4383 18.6007 16.293 18.6007 16.1416C18.6007 15.9901 18.5374 15.8449 18.4249 15.7378C18.3123 15.6307 18.1597 15.5705 18.0005 15.5705Z" fill="#29BB89"/>
</svg>
